<svg width="57" height="40" fill="none" xmlns="http://www.w3.org/2000/svg"><path d="M29.517 37.014a17.01 17.01 0 01-11.982-4.929 61.532 61.532 0 01-3.572.379c3.664 4.545 9.274 7.46 15.554 7.46 10.709 0 19.472-8.47 19.941-19.063-.96.632-2.004 1.26-3.115 1.875-1.33 8.09-8.367 14.278-16.826 14.278z" fill="#fff"/><path d="M42.114 24.866c-3.365 1.55-7.137 2.977-11.109 4.192a92.09 92.09 0 01-8.846 2.245 13.444 13.444 0 007.358 2.175c5.734 0 10.634-3.572 12.597-8.612z" fill="#fff"/><path d="M56.195 10.06c-.857-2.803-4.633-4.242-10.896-4.18-.12 0-.241.005-.366.005a20.539 20.539 0 012.242 2.936c4.15.191 5.963 1.197 6.238 2.091.281.915-.725 2.84-4.27 5.416C47.403 6.898 39.019-.227 29.044.006 18.76.245 10.253 8.393 9.596 18.658a19.85 19.85 0 001.863 9.803c-.138.003-.28.009-.416.01-5.465.067-7.773-1.106-8.085-2.12-.403-1.323 1.602-3.719 5.665-6.368v-.02c0-1.236.108-2.442.316-3.619-6.026 3.51-9.82 7.415-8.763 10.859.836 2.74 4.458 4.184 10.476 4.184.137 0 .279-.004.42-.004 5.615-.063 12.697-1.315 19.934-3.531 7.24-2.213 13.81-5.136 18.498-8.23 5.236-3.453 7.548-6.759 6.691-9.562zM12.49 19.054c.463-8.88 7.815-15.975 16.705-16.14C38.11 2.75 45.517 9.466 46.46 18.095a52.982 52.982 0 01-3.427 1.888v-.02a13.47 13.47 0 00-1.113-5.384c-.424-.975-1.8-1.05-2.314-.12a5.821 5.821 0 01-5.537 2.992c-2.84-.208-5.147-2.506-5.366-5.345a5.807 5.807 0 011.431-4.305c.465-.528.108-1.354-.595-1.355h-.022C22.051 6.446 16 12.497 16 19.963c0 2.92.93 5.62 2.508 7.833-1.336.208-2.63.37-3.872.482a16.957 16.957 0 01-2.147-9.224zm14.69 1.164a2.351 2.351 0 114.67-.516 2.351 2.351 0 01-4.67.516z" fill="url(#paint0_linear_10_64)"/><defs><linearGradient id="paint0_linear_10_64" x1="28.185" y1="0" x2="28.185" y2="31.387" gradientUnits="userSpaceOnUse"><stop stop-color="#FF1B30"/><stop offset="1" stop-color="#FF9313"/></linearGradient></defs></svg>