<svg width="78" height="56" fill="none" xmlns="http://www.w3.org/2000/svg"><path d="M40.69 51.026c-6.426 0-12.268-2.598-16.516-6.794-1.697.23-3.343.401-4.926.522C24.3 51.02 32.034 55.039 40.691 55.039c14.763 0 26.843-11.679 27.49-26.28a66.68 66.68 0 01-4.293 2.585c-1.835 11.15-11.536 19.682-23.197 19.682z" fill="#fff"/><path d="M58.056 34.279c-4.638 2.138-9.838 4.105-15.313 5.779a126.91 126.91 0 01-12.195 3.096 18.534 18.534 0 0010.143 2.998c7.906 0 14.66-4.924 17.365-11.873z" fill="#fff"/><path d="M77.47 13.869c-1.182-3.864-6.388-5.848-15.022-5.762-.166 0-.332.005-.504.005a28.305 28.305 0 013.09 4.048c5.722.264 8.221 1.651 8.6 2.884.387 1.26-1 3.914-5.886 7.465-2.401-13-13.96-22.822-27.71-22.501-14.176.33-25.904 11.563-26.81 25.714a27.364 27.364 0 002.57 13.514c-.191.004-.386.012-.574.014-7.534.092-10.716-1.526-11.146-2.924-.556-1.824 2.208-5.126 7.809-8.778v-.028c0-1.703.149-3.366.435-4.988C4.015 27.37-1.213 32.754.242 37.502c1.153 3.777 6.147 5.767 14.442 5.767.19 0 .385-.006.58-.006 7.74-.086 17.503-1.812 27.48-4.868 9.98-3.05 19.04-7.08 25.5-11.346 7.219-4.758 10.406-9.316 9.225-13.18zM17.216 26.267c.638-12.241 10.774-22.022 23.03-22.25 12.289-.228 22.5 9.032 23.8 20.929a72.995 72.995 0 01-4.724 2.602v-.028c0-2.64-.547-5.148-1.535-7.422-.584-1.344-2.48-1.448-3.19-.165a8.025 8.025 0 01-7.633 4.124c-3.914-.287-7.096-3.454-7.397-7.368a8.005 8.005 0 011.973-5.935c.64-.728.148-1.867-.821-1.867h-.03c-10.29 0-18.633 8.341-18.633 18.633 0 4.027 1.282 7.748 3.457 10.798-1.841.288-3.625.51-5.338.665a23.376 23.376 0 01-2.96-12.716zm20.252 1.604a3.241 3.241 0 116.46-.352 3.24 3.24 0 01-3.623 3.217 3.253 3.253 0 01-2.837-2.865z" fill="url(#paint0_linear_24_392)"/><defs><linearGradient id="paint0_linear_24_392" x1="38.855" y1="0" x2="38.855" y2="43.269" gradientUnits="userSpaceOnUse"><stop stop-color="#FF1B30"/><stop offset="1" stop-color="#FF9313"/></linearGradient></defs></svg>