<svg version="1.0" xmlns="http://www.w3.org/2000/svg" width="24" height="20" viewBox="0 0 64 64"><path d="M22.4 15.1c-.4.7.1 1.6 1 2.1 1.2.7 1.6 2.3 1.6 6.6 0 10.6-2.8 10.2-8.9-1.4l-3.6-6.9-5-.3c-8.1-.4-8.3.4-3.7 9.6C12.5 42.2 21.1 50 31.7 50c5.2 0 5.2 0 5.9-3.6 1-5.2 2.9-5.3 7.8-.5l4.3 4.2 6.9-.3c8.7-.4 9.1-1.5 2.4-9-2.7-3.1-5-6.1-5-6.7 0-.7 2.3-4.4 5-8.3 2.8-3.9 5-7.7 5-8.4 0-1.8-3.5-2.6-9.6-2.2-4.3.3-5 .6-6.3 3.3-2.6 5.7-7.3 12.5-8.7 12.5-1.8 0-2.8-4.2-2-9.1 1-6.5-.4-7.9-7.9-7.9-3.7 0-6.7.5-7.1 1.1z" fill="#2A2618"/></svg>